<?xml version="1.0" encoding="UTF-8" standalone="no"?>
<!DOCTYPE svg PUBLIC "-//W3C//DTD SVG 1.1//EN" "http://www.w3.org/Graphics/SVG/1.1/DTD/svg11.dtd">
<svg width="100%" height="100%" viewBox="0 0 2363 650" version="1.1" xmlns="http://www.w3.org/2000/svg" xmlns:xlink="http://www.w3.org/1999/xlink" xml:space="preserve" style="fill-rule:evenodd;clip-rule:evenodd;stroke-linejoin:round;stroke-miterlimit:1.41421;">
    <g transform="matrix(3.55021,0,0,3.55021,-56.4791,15.1784)">
        <path d="M379.48,2.47C383.43,-0.83 389.79,0.03 393.16,3.79C395.61,6.41 398.24,9.31 398.7,13.02C399.95,23.52 399.69,34.26 397.27,44.58C395.15,52.42 391.2,59.57 387.86,66.93C384.76,71.67 381.48,76.71 376.41,79.54C374.11,80.68 371.27,81.67 368.81,80.44C365.03,78.54 362.49,74.22 362.95,69.98C363.08,67.8 365.89,70.33 365.87,72.25C366.81,74.87 369.38,77.57 372.41,76.98C376.4,74.59 377.49,69.89 378.63,65.74C381.5,58.01 381.97,49.73 383.4,41.68C384.67,34.18 384.53,26.55 384.78,18.98C384.53,15.05 384.41,9.94 380.94,7.45C377.87,8.27 376.53,11.47 374.97,13.93C371.27,21.02 367.842,28.35 364.98,35.77C362.127,43.169 359.344,50.672 357.8,58.45C356.09,67.065 355.205,77.889 353.945,87.182C352.314,99.209 349.734,127.625 348.014,130.615C346.394,133.715 342.96,132.92 340.23,131.86C337.33,129.08 334.69,125.67 334.31,121.53C332.29,113.14 333.27,104.48 332.76,95.95C333.12,80.35 333.46,64.74 334.73,49.18C334.97,39.74 335.24,30.3 335.9,20.87C335.95,16.54 336.89,11.88 334.95,7.8C333.88,7.54 331.003,7.889 330.014,8.369C328.445,9.13 327.391,10.689 325.538,12.368C324.548,10.868 327.07,6.48 328.2,5.88C331.87,4.25 336.46,3.355 339.95,4.53C343.44,5.705 347.78,8.84 349.14,12.93C351.72,20.28 350.58,28.2 350.27,35.81C350.21,47.21 349.72,58.6 349.11,69.98C349.05,86.24 348.199,104.058 346.949,120.248C346.559,123.488 346.12,125.15 346.52,128.39C347.31,126.63 348.978,111.341 349.218,109.411C351.788,91.521 351.981,80.926 353.29,68.9C354.32,59.44 356.15,50.03 358.9,40.91C361.83,32.72 364.01,22.597 368.8,15.227C371.72,10.047 374.66,6.15 379.48,2.47Z" style="fill:black;fill-rule:nonzero;"/>
    </g>
    <g transform="matrix(3.55021,0,0,3.55021,10.9749,15.1784)">
        <path d="M12.85,9.77C15,7.14 18.96,7.79 21.62,9.23C25.05,11.52 25.32,16.09 26.66,19.65C31.06,36.61 31.75,54.31 31.77,71.75C33.61,66.65 34.02,61.17 35.5,55.96C37.81,47.93 38.63,39.43 42.14,31.77C45.2,25.22 46.89,18.03 50.79,11.89C51.9,10.4 53.4,8.14 55.56,9.1C59.45,11.32 60.86,16.1 61.33,20.28C62.82,34.25 64.25,48.24 64.58,62.29C66.65,57.28 67.91,52 69.64,46.88C73.16,39.86 75.65,32.38 79.11,25.33C80.97,21.06 82.53,16.17 86.75,13.62C89.29,11.62 93.21,12.59 94.63,15.47C100.06,23.98 97.54,34.53 97.95,44.02C98.78,64.32 98.69,84.64 98.64,104.96C98.58,108.52 98.88,112.09 99.6,115.58C102.56,113.49 104.26,110.24 106.42,107.44C109.38,103.61 111.71,99.33 113.86,95C114.65,93.33 116.31,92.4 117.82,91.48C117.02,96.62 113.63,100.71 110.96,104.99C106.72,111.59 102.84,118.83 96.22,123.38C93.68,125.21 89.79,124.25 88.29,121.52C86.82,118.74 85.32,115.91 84.65,112.82C83.24,99.24 82.76,85.57 83.55,71.93C82.91,60.97 83.32,50.01 83.71,39.05C83.82,33.65 84.97,28.18 83.55,22.86C80.59,26.54 79.34,31.16 77.48,35.41C74.84,42.15 71.45,48.66 69.89,55.77C66.82,67.28 62.38,79.06 64.21,91.17C65.09,99.75 63.84,108.37 64.27,116.97C64.19,118.99 64.75,121.56 62.87,122.95C61.17,125.03 58.26,123.98 56.5,122.59C52.47,119.84 51.79,114.57 51.28,110.1C48.65,95.21 49.12,80.03 48.68,64.98C48.61,59.98 47.8,55.02 48.01,50.01C47.55,41.82 48.94,33.6 47.76,25.44C43.81,32.35 42.12,40.25 40.28,47.92C38.83,56.67 35.74,65.06 34.55,73.85C33.63,80.8 30.81,87.55 31.47,94.64C32.07,102.77 31.71,114.94 32.21,123.07C31.52,127.95 24.13,130.04 20.92,126.19C17.65,122.29 15.84,117.18 15.91,112.09C15.87,98.72 16.23,81.35 15.74,67.99C16.22,54.96 15.44,41.94 15.22,28.91C15.25,24.71 14.71,20.52 14.06,16.38C13.52,16.03 12.44,15.33 11.9,14.98C8.38,19.93 4.59,24.71 1.7,30.07C1.35,28.63 0.01,26.91 1.44,25.61C5.76,20.71 8.55,14.67 12.85,9.77Z" style="fill:black;fill-rule:nonzero;"/>
    </g>
    <g transform="matrix(3.55021,0,0,3.55021,3.87452,15.1784)">
        <path d="M532.26,57.31C536.79,53.12 544.6,52.31 549.22,56.79C552.32,59.48 551.61,65.15 547.79,66.83C544.13,68.59 540.62,70.64 536.92,72.31C534.89,80.24 532.75,89 536.04,96.89C536.97,99.9 540.81,101.4 543.45,99.56C551.83,94.58 567.44,72.24 571.21,68.28C573.58,62.37 578.85,54.01 584.87,51.52C588.34,50.47 592.41,50.35 595.52,52.5C598.12,53.89 598.85,59.98 597.97,62.92C597.52,65.5 593.4,68.387 591.26,69.397C588.2,70.757 587.01,72.02 583.92,73.3C581.9,81.21 579.75,91.96 583.01,99.82C583.85,102.52 587.09,104.25 589.72,102.92C595.07,100.13 618.86,66.66 623.14,60.96C625.22,57.99 628.92,56.15 632.55,56.3C636.08,57.54 637.23,61.39 638.49,64.53C639.69,69.41 640.7,74.35 641.42,79.33C644.11,71.2 648.24,63.39 654.2,57.18C655.47,55.92 656.96,54.55 658.92,54.82C660.56,55.81 660.87,57.78 661.35,59.47C660.2,60.04 659.05,60.6 657.91,61.15C657.03,60.6 656.16,60.05 655.3,59.5C650.16,64.62 647.62,71.53 644.87,78.08C642.2,84.44 642.35,91.46 641.61,98.2C641.23,99.77 641.29,102.24 639.13,102.26C635.16,100.63 629.87,98.42 629.97,93.31C629.17,82.9 627.58,72.58 625.29,62.4C620.62,67.65 603.19,96.34 594.61,102.72C590.9,105.53 587.14,109.91 582.01,109.06C577.35,108.51 572.55,106 570.45,101.64C566.33,93.67 566.79,81.14 569.51,72.82C561.55,82.71 557.682,89.698 547.61,99.72C544.62,102.13 541.71,104.94 537.96,106.09C531.49,106.7 524.47,102.92 522.5,96.51C517.97,85.56 521.36,73.37 526.68,63.36C519.65,66.73 512.45,69.73 505.24,72.66C505.29,81.32 504.51,90.74 498.77,97.71C495.92,101.81 490.99,104.58 485.94,104.32C483.84,103.44 481.94,101.38 481.88,99C481.18,90.48 485.55,82.42 491.52,76.64C490.91,71.31 491.63,65.5 488.92,60.65C487.78,60.77 486.88,61.29 486.21,62.19C482.52,66.44 481.07,72 479.35,77.22C478.02,81.42 476.16,85.54 475.91,90C475.3,96.99 474.797,105.477 474.807,112.477C473.957,123.947 474.52,137.742 473.25,149.182C470.37,153.282 464.59,147.91 463.37,142.82C462.07,138.1 463.18,108.09 462.46,97.96C462.22,89.03 462,80.08 462.63,71.16C462.97,67.7 461.82,64.22 462.79,60.81C460.432,63.114 457.202,66.539 454.76,69.7C447.39,79.24 440.24,101.2 435.26,105.26C432.24,108.27 428.54,111.46 423.93,110.85C420.29,111.33 418.7,107.39 416.87,105.02C412.34,98.23 412.37,89.87 411.43,82.07C411.2,79.66 411.38,77.23 411.58,74.83C409.34,78.82 406.33,82.32 404.36,86.47C401.3,91.88 397.61,98.05 391.21,99.8C388.08,99.9 385.13,97.77 383.92,94.93C380.34,88.29 381.09,80.24 383.51,73.35C386.31,68.13 388.93,62.34 394.03,58.94C398.05,56.61 403.04,55.15 407.62,56.64C410.49,57.43 412.86,59.33 415.01,61.32C415.97,60.06 416.91,58.75 418.13,57.71C421.61,58.02 422.54,62.45 424.86,64.58C425.62,71.74 424.31,78.91 424.88,86.07C425.43,92.84 425.51,100.15 429.51,105.98C436.02,101.87 447.917,73.976 454.32,65.524C457.183,61.745 463.4,56.33 467.93,55.27C470.07,55.37 472.12,56.09 474.2,56.58C475.55,65.48 474.07,74.46 474.82,83.4C477.2,75.52 478.72,66.81 484.64,60.66C487.17,57.54 491.41,54.76 495.52,56.46C501.6,58.29 503.56,65.12 504.96,70.6C510.49,68.45 515.77,65.72 521.25,63.44C525.24,62.07 529.18,60.28 532.26,57.31ZM491.83,79.17C490.15,86.76 492.67,95.61 487.81,102.23C486.88,101.82 485.96,101.41 485.04,101C483.07,93.01 486.88,85.21 491.83,79.17ZM396.95,71.74C399.12,66.79 401.38,60.61 407.1,58.93C409.57,59.87 411.84,61.21 413.64,63.16C412.31,68.94 409.43,74.18 406.11,79.03C402.31,84.52 399.95,91.17 394.73,95.56C392.28,87.64 395.06,79.46 396.95,71.74ZM591.57,52.91C595.55,52.79 596.62,60.46 594.83,63.72C590.771,68.595 588.11,68.82 584.76,70.84C585.98,65.95 587.66,56.52 591.57,52.91ZM543.57,55.91C547.54,55.79 549.61,60.45 547.84,63.7C545.39,66.98 541.12,67.82 537.76,69.84C538.98,64.95 539.66,59.52 543.57,55.91Z" style="fill:black;"/>
    </g>
    <g transform="matrix(3.55021,0,0,3.55021,3.87452,15.1784)">
        <path d="M207.042,55.694C208.707,55.707 210.19,56.299 211.01,58.08C214.44,65.61 213.25,74.13 213.18,82.15C213.31,90.04 211.57,98.14 213.91,105.86C214.33,107.41 215.38,108.66 216.38,109.88C219.97,107.22 222.18,103.17 223.83,99.11C227.22,89.38 229.97,79.28 230.25,68.92C230.49,67.72 229.95,66.08 231.06,65.21C233.44,62.6 237.18,63.98 240.23,63.99C241.99,73.6 240.78,83.39 241.53,93.08C241.4,98.19 241.76,103.28 242,108.39C245.36,103.05 249.2,98.07 252.75,92.87C259.71,84.49 266.35,75.8 274.23,68.24C277.89,64.79 279.71,58.3 285.39,57.84C282.44,63.18 277.8,67.29 273.75,71.76C268.14,76.91 263.75,83.17 258.76,88.89C255.78,92.02 253.76,95.87 251.28,99.38C248.07,104.2 243.77,108.41 241.85,113.97C242.2,126.64 243.23,139.72 238.96,151.9C236.77,156.77 234.3,161.75 230.16,165.26C227.56,167.63 224.518,170.373 221.36,170.94C218.202,171.507 212.574,171.848 211.21,168.66C209.648,165.01 208.396,157.71 211.99,149.04C216.17,138.957 225.58,128.3 227.48,122.83C228.82,113.66 227.95,104.38 228.09,95.16C225.82,100.57 223.17,105.86 219.71,110.62C217.16,114.07 212.22,114.38 208.36,113.49C204.71,112.54 202.63,109.04 201.55,105.68C199.16,99.36 200.11,92.53 199.67,85.94C199.23,78.13 201.22,70.15 199.05,62.47C195.56,66.17 188.861,74.773 185.975,78.964C183.326,82.811 179.771,89.426 176.57,92.54C173.93,95.109 170.3,96.52 166.77,97.65C162.98,99.14 158.4,96.84 156.76,93.24C153.58,87.46 153.14,80.72 152.8,74.27C150.11,81.88 146.67,89.29 141.77,95.73C140.24,97.65 137.78,99.39 135.2,98.57C129.16,97.25 125.09,91.12 125.35,85.08C124.97,79.87 126.13,74.77 127.35,69.75C128.33,66.2 126.502,62.22 126.422,58.65C129.612,56.969 133.35,57.65 136.29,58.59C139.02,59.46 138.78,62.79 138.92,65.07C138.78,74.67 136.52,84.58 139.18,94C139.323,94.004 139.518,94.012 139.728,94.021L140.152,94.039C140.362,94.048 140.558,94.056 140.7,94.06C145.49,86.87 148.53,78.74 151.75,70.77C153.45,67.43 154.05,63.47 156.75,60.7C158.61,61.84 160.82,62.92 161.6,65.13C165.05,73.81 163.47,84.13 169.19,91.96C170.67,92.77 172.44,92.73 173.92,91.92C179.11,88.95 186.115,74.333 190.64,68.53C193.812,64.462 196.51,59.78 201.07,57.1C202.748,56.508 205,55.689 206.999,55.694L207.042,55.694ZM215.18,150.18C219.79,141.48 223.384,135.853 228.994,127.733C229.554,138.753 230.06,142.606 227.85,153.456C226.51,157.286 223.275,163.517 219.315,165.077C216.495,165.807 215.16,165.61 214.46,162.94C213.57,158.72 213.78,154.27 215.18,150.18Z" style="fill:black;"/>
    </g>
</svg>
