<svg viewBox="0 0 2363 650" xmlns="http://www.w3.org/2000/svg" fill-rule="evenodd" clip-rule="evenodd" stroke-linejoin="round" stroke-miterlimit="1.414"><path d="M1290.755 23.947c14.023-11.715 36.602-8.662 48.566 4.687 8.698 9.301 18.036 19.597 19.669 32.768 4.437 37.277 3.514 75.407-5.077 112.045-7.527 27.833-21.55 53.217-33.408 79.347-11.005 16.828-22.65 34.721-40.65 44.768-8.165 4.047-18.248 7.562-26.981 3.195-13.42-6.745-22.437-22.082-20.804-37.135.461-7.74 10.437 1.243 10.366 8.06 3.337 9.3 12.461 18.886 23.219 16.792 14.165-8.485 18.035-25.171 22.082-39.905 10.189-27.443 11.858-56.839 16.934-85.418 4.51-26.626 4.012-53.715 4.9-80.59-.888-13.952-1.314-32.094-13.633-40.934-10.9 2.912-15.657 14.272-21.195 23.006-13.136 25.17-25.306 51.194-35.466 77.536-10.13 26.268-20.01 52.906-25.491 80.52-6.07 30.584-9.213 69.012-13.686 102.004-5.79 42.698-14.95 143.581-21.056 154.196-5.752 11.006-17.943 8.183-27.635 4.42-10.296-9.87-19.668-21.976-21.017-36.674-7.172-29.786-3.693-60.53-5.503-90.814 1.278-55.383 2.485-110.802 6.994-166.043.852-33.514 1.81-67.028 4.153-100.507.178-15.372 3.515-31.916-3.372-46.401-3.799-.923-14.013.316-17.524 2.02-5.57 2.702-9.312 8.237-15.89 14.197-3.516-5.325 5.438-20.903 9.45-23.033 13.03-5.787 29.325-8.965 41.715-4.793 12.39 4.171 27.798 15.301 32.626 29.822 9.16 26.094 5.113 54.211 4.012 81.228-.213 40.473-1.953 80.91-4.118 121.311-.213 57.727-3.235 120.984-7.672 178.462-1.385 11.503-2.943 17.403-1.523 28.906 2.804-6.249 8.726-60.528 9.578-67.38 9.124-63.513 9.81-101.127 14.457-143.822 3.656-33.585 10.153-66.993 19.916-99.37 10.402-29.077 18.142-65.016 35.147-91.18 10.367-18.39 20.805-32.226 37.917-45.29zM56.595 49.864c7.633-9.337 21.692-7.03 31.135-1.917 12.178 8.13 13.136 24.354 17.893 36.993 15.621 60.212 18.071 123.05 18.142 184.966 6.532-18.106 7.988-37.561 13.242-56.058 8.201-28.508 11.113-58.685 23.574-85.88 10.863-23.253 16.863-48.78 30.71-70.578 3.94-5.29 9.265-13.313 16.934-9.905 13.81 7.882 18.816 24.852 20.484 39.692 5.29 49.596 10.367 99.264 11.538 149.144 7.35-17.787 11.823-36.532 17.965-54.709 12.496-24.922 21.336-51.478 33.62-76.507 6.603-15.16 12.142-32.52 27.124-41.573 9.017-7.1 22.934-3.656 27.975 6.568 19.278 30.212 10.331 67.667 11.787 101.359 2.947 72.069 2.627 144.21 2.45 216.35-.213 12.638.852 25.312 3.408 37.703 10.508-7.42 16.544-18.958 24.212-28.899 10.509-13.597 18.78-28.792 26.414-44.165 2.804-5.929 8.698-9.23 14.059-12.496-2.84 18.248-14.876 32.768-24.355 47.963-15.053 23.431-28.828 49.135-52.33 65.288-9.017 6.497-22.828 3.089-28.153-6.603-5.219-9.87-10.544-19.917-12.923-30.887-5.006-48.212-6.71-96.743-3.905-145.168-2.272-38.91-.817-77.82.568-116.73.39-19.172 4.473-38.592-.568-57.479-10.509 13.065-14.946 29.467-21.55 44.555-9.372 23.929-21.408 47.04-26.946 72.283-10.9 40.863-26.662 82.684-20.165 125.677 3.124 30.46-1.314 61.064.213 91.595-.284 7.172 1.704 16.296-4.97 21.23-6.036 7.385-16.367 3.657-22.615-1.277-14.308-9.763-16.722-28.473-18.532-44.342-9.337-52.863-7.669-106.755-9.23-160.186-.25-17.751-3.125-35.36-2.38-53.147-1.633-29.076 3.302-58.259-.887-87.228-14.023 24.532-20.023 52.578-26.556 79.808-5.147 31.065-16.118 60.851-20.342 92.057-3.267 24.674-13.278 48.638-10.935 73.81 2.13 28.862.852 72.069 2.627 100.932-2.45 17.325-28.686 24.745-40.082 11.076-11.609-13.845-18.035-31.987-17.786-50.058-.142-47.466 1.136-109.133-.604-156.564 1.704-46.26-1.065-92.483-1.846-138.742.107-14.91-1.81-29.786-4.118-44.484l-7.669-4.97C40.726 85.934 27.27 102.904 17.01 121.933c-1.242-5.112-6-11.218-.923-15.834C31.424 88.703 41.33 67.26 56.595 49.864z" fill-rule="nonzero"/><path d="M1893.51 218.64c16.082-14.874 43.809-17.75 60.21-1.845 11.007 9.55 8.486 29.68-5.076 35.644-12.994 6.248-25.455 13.526-38.59 19.455-7.208 28.153-14.805 59.253-3.125 87.264 3.302 10.686 16.935 16.012 26.307 9.48 29.75-17.68 85.17-96.992 98.554-111.051 8.414-20.982 27.124-50.662 48.496-59.502 12.32-3.728 26.768-4.154 37.81 3.48 9.23 4.934 11.822 26.555 8.698 36.993-1.598 9.16-16.225 19.409-23.822 22.994-10.864 4.829-15.089 9.313-26.059 13.857-7.171 28.082-14.804 66.247-3.23 94.151 2.982 9.586 14.484 15.728 23.821 11.006 18.994-9.905 103.453-128.73 118.648-148.967 7.385-10.544 20.52-17.076 33.408-16.544 12.532 4.402 16.615 18.07 21.088 29.218 4.26 17.325 7.846 34.864 10.402 52.544 9.55-28.864 24.213-56.59 45.372-78.638 4.509-4.473 9.798-9.337 16.757-8.378 5.822 3.515 6.923 10.509 8.627 16.508a1276.881 1276.881 0 0 1-12.213 5.965 1055.767 1055.767 0 0 1-9.266-5.858c-18.248 18.177-27.265 42.709-37.029 65.963-9.479 22.58-8.946 47.502-11.573 71.43-1.35 5.574-1.136 14.343-8.805 14.414-14.094-5.787-32.875-13.633-32.52-31.775-2.84-36.957-8.485-73.595-16.615-109.736-16.58 18.638-78.46 120.494-108.92 143.144-13.171 9.976-26.52 25.526-44.733 22.508-16.544-1.952-33.585-10.863-41.04-26.342-14.627-28.295-12.994-72.78-3.337-102.317-28.26 35.111-41.992 59.92-77.75 95.5-10.615 8.556-20.946 18.532-34.26 22.615-22.97 2.166-47.892-11.254-54.886-34.01-16.082-38.876-4.047-82.153 14.84-117.69-24.958 11.964-50.52 22.615-76.116 33.017.177 30.744-2.592 64.187-22.97 88.932-10.118 14.556-27.62 24.39-45.55 23.467-7.455-3.124-14.2-10.437-14.413-18.887-2.485-30.248 13.029-58.862 34.224-79.383-2.166-18.922.39-39.549-9.23-56.767-4.048.426-7.243 2.272-9.622 5.467-13.1 15.088-18.248 34.828-24.354 53.36-4.722 14.91-11.325 29.537-12.213 45.371-2.166 24.816-3.951 54.947-3.916 79.798-3.018 40.721-1.019 89.696-5.528 130.31-10.224 14.557-30.744-4.515-35.076-22.586-4.615-16.757-.674-123.298-3.23-159.262-.852-31.703-1.633-63.478.603-95.146 1.207-12.283-2.875-24.638.568-36.744-8.371 8.18-19.838 20.339-28.508 31.561-26.165 33.869-51.549 111.832-69.23 126.246-10.72 10.686-23.856 22.01-40.223 19.845-12.923 1.704-18.568-12.284-25.064-20.698-16.083-24.105-15.976-53.785-19.314-81.477-.816-8.556-.177-17.183.533-25.703-7.953 14.165-18.639 26.59-25.633 41.324-10.863 19.207-23.963 41.111-46.685 47.324-11.112.355-21.585-7.207-25.88-17.29-12.71-23.573-10.048-52.152-1.456-76.613 9.94-18.532 19.242-39.088 37.348-51.158 14.272-8.272 31.987-13.456 48.247-8.166 10.19 2.805 18.603 9.55 26.236 16.615 3.408-4.473 6.746-9.124 11.077-12.816 12.355 1.1 15.656 16.828 23.893 24.39 2.698 25.42-1.953 50.874.07 76.294 1.953 24.035 2.237 49.987 16.438 70.685 23.112-14.592 65.349-113.621 88.08-143.628 10.165-13.416 32.237-32.64 48.32-36.403 7.597.355 14.875 2.91 22.26 4.65 4.792 31.597-.462 63.478 2.2 95.217 8.45-27.976 13.846-58.898 34.863-80.732 8.982-11.077 24.035-20.946 38.627-14.91 21.585 6.496 28.543 30.744 33.514 50.2 19.632-7.634 38.377-17.326 57.832-25.42 14.166-4.864 28.154-11.219 39.088-21.763zm-143.536 77.609c-5.964 26.946 2.982 58.365-14.272 81.867a2678.56 2678.56 0 0 1-9.834-4.366c-6.994-28.367 6.533-56.058 24.106-77.501zM1413.13 269.87c7.704-17.573 15.728-39.513 36.035-45.478 8.769 3.337 16.828 8.095 23.218 15.018-4.721 20.52-14.946 39.123-26.733 56.341-13.49 19.491-21.869 43.1-40.401 58.685-8.698-28.117 1.171-57.158 7.881-84.566zm690.942-66.85c14.13-.426 17.929 26.804 11.574 38.378-14.41 17.307-23.857 18.106-35.75 25.277 4.33-17.36 10.295-50.839 24.176-63.655zm-170.41 10.65c14.095-.425 21.443 16.119 15.16 27.657-8.698 11.644-23.858 14.627-35.787 21.798 4.332-17.36 6.746-36.638 20.627-49.454zM738.917 212.904c5.911.046 11.176 2.148 14.087 8.47 12.178 26.734 7.953 56.981 7.704 85.454.462 28.011-5.716 56.768 2.592 84.176 1.491 5.502 5.219 9.94 8.769 14.271 12.745-9.443 20.591-23.821 26.449-38.235 12.035-34.544 21.798-70.401 22.792-107.181.852-4.26-1.065-10.083 2.876-13.171 8.45-9.266 21.727-4.367 32.555-4.332 6.249 34.118 1.953 68.874 4.616 103.276-.462 18.142.816 36.212 1.668 54.354 11.929-18.958 25.562-36.639 38.165-55.1 24.71-29.75 48.283-60.602 76.259-87.441 12.993-12.248 19.455-35.29 39.62-36.922-10.473 18.958-26.946 33.549-41.324 49.418-19.917 18.284-35.503 40.508-53.218 60.816-10.58 11.112-17.751 24.78-26.556 37.241-11.396 17.112-26.662 32.059-33.478 51.798 1.242 44.981 4.9 91.418-10.26 134.66-7.775 17.289-16.544 34.969-31.242 47.43-9.23 8.414-20.03 18.152-31.242 20.165-11.212 2.013-31.192 3.224-36.035-8.094-5.545-12.958-9.99-38.875 2.77-69.655 14.84-35.797 48.247-73.632 54.992-93.051 4.758-32.556 1.669-65.502 2.166-98.235-8.06 19.207-17.467 37.988-29.75 54.887-9.054 12.248-26.592 13.348-40.296 10.189-12.958-3.373-20.342-15.799-24.177-27.727-8.485-22.438-5.112-46.686-6.674-70.082-1.562-27.727 5.503-56.057-2.201-83.323-12.39 13.136-36.173 43.678-46.42 58.557-9.404 13.658-22.025 37.142-33.389 48.198-9.372 9.12-22.26 14.13-34.792 18.141-13.455 5.29-29.715-2.875-35.538-15.656-11.29-20.52-12.851-44.449-14.058-67.348-9.55 27.018-21.763 53.325-39.16 76.188-5.431 6.816-14.165 12.994-23.324 10.083-21.443-4.687-35.893-26.45-34.97-47.893-1.349-18.496 2.77-36.602 7.1-54.424 3.48-12.604-3.01-26.734-3.294-39.408 11.325-5.968 24.596-3.55 35.034-.213 9.692 3.089 8.84 14.911 9.337 23.006-.497 34.082-8.52 69.264.923 102.707.507.014 1.2.043 1.945.075l1.506.064c.745.032 1.44.06 1.945.074 17.006-25.526 27.798-54.39 39.23-82.684 6.035-11.858 8.165-25.917 17.75-35.75 6.604 4.046 14.45 7.88 17.22 15.727 12.248 30.815 6.638 67.454 26.946 95.252 5.254 2.875 11.538 2.733 16.792-.142 18.426-10.544 43.295-62.438 59.36-83.04 11.26-14.442 20.84-31.064 37.028-40.579 5.957-2.101 13.953-5.009 21.05-4.991h.152zm28.892 335.445c16.366-30.887 29.126-50.864 49.042-79.692 1.988 39.124 3.785 52.803-4.061 91.322-4.757 13.598-16.242 35.72-30.301 41.257-10.012 2.592-14.751 1.893-17.236-7.586-3.16-14.982-2.415-30.78 2.556-45.301z"/></svg>